<svg xmlns="http://www.w3.org/2000/svg" version="1.1" xmlns:xlink="http://www.w3.org/1999/xlink" xmlns:svgjs="http://svgjs.dev/svgjs" width="1440" height="560" preserveAspectRatio="none" viewBox="0 0 1440 560"><g mask="url(&quot;#SvgjsMask1003&quot;)" fill="none"><rect width="1440" height="560" x="0" y="0" fill="rgba(0, 170, 0, 1)"></rect><path d="M102.58 74.27L167.54 111.77L167.54 186.77L102.58 224.27L37.63 186.77L37.63 111.77zM167.54 186.77L232.49 224.27L232.49 299.27L167.54 336.77L102.58 299.27L102.58 224.27zM297.44 -38.23L362.4 -0.73L362.4 74.27L297.44 111.77L232.49 74.27L232.49 -0.73zM297.44 186.77L362.4 224.27L362.4 299.27L297.44 336.77L232.49 299.27L232.49 224.27zM427.35 -38.23L492.31 -0.73L492.31 74.27L427.35 111.77L362.4 74.27L362.4 -0.73zM1076.89 186.77L1141.84 224.27L1141.84 299.27L1076.89 336.77L1011.94 299.27L1011.94 224.27zM1141.84 299.27L1206.8 336.77L1206.8 411.77L1141.84 449.27L1076.89 411.77L1076.89 336.77zM1206.8 -38.23L1271.75 -0.73L1271.75 74.27L1206.8 111.77L1141.84 74.27L1141.84 -0.73zM1206.8 186.77L1271.75 224.27L1271.75 299.27L1206.8 336.77L1141.84 299.27L1141.84 224.27zM1271.75 299.27L1336.7 336.77L1336.7 411.77L1271.75 449.27L1206.8 411.77L1206.8 336.77zM1336.71 186.77L1401.66 224.27L1401.66 299.27L1336.71 336.77L1271.75 299.27L1271.75 224.27zM1466.61 -38.23L1531.57 -0.73L1531.57 74.27L1466.61 111.77L1401.66 74.27L1401.66 -0.73z" stroke="rgba(0, 51, 0, 1)" stroke-width="2"></path><path d="M95.08 74.27 a7.5 7.5 0 1 0 15 0 a7.5 7.5 0 1 0 -15 0zM160.04 111.77 a7.5 7.5 0 1 0 15 0 a7.5 7.5 0 1 0 -15 0zM160.04 186.77 a7.5 7.5 0 1 0 15 0 a7.5 7.5 0 1 0 -15 0zM95.08 224.27 a7.5 7.5 0 1 0 15 0 a7.5 7.5 0 1 0 -15 0zM30.13 186.77 a7.5 7.5 0 1 0 15 0 a7.5 7.5 0 1 0 -15 0zM30.13 111.77 a7.5 7.5 0 1 0 15 0 a7.5 7.5 0 1 0 -15 0zM224.99 224.27 a7.5 7.5 0 1 0 15 0 a7.5 7.5 0 1 0 -15 0zM224.99 299.27 a7.5 7.5 0 1 0 15 0 a7.5 7.5 0 1 0 -15 0zM160.04 336.77 a7.5 7.5 0 1 0 15 0 a7.5 7.5 0 1 0 -15 0zM95.08 299.27 a7.5 7.5 0 1 0 15 0 a7.5 7.5 0 1 0 -15 0zM289.94 -38.23 a7.5 7.5 0 1 0 15 0 a7.5 7.5 0 1 0 -15 0zM354.9 -0.73 a7.5 7.5 0 1 0 15 0 a7.5 7.5 0 1 0 -15 0zM354.9 74.27 a7.5 7.5 0 1 0 15 0 a7.5 7.5 0 1 0 -15 0zM289.94 111.77 a7.5 7.5 0 1 0 15 0 a7.5 7.5 0 1 0 -15 0zM224.99 74.27 a7.5 7.5 0 1 0 15 0 a7.5 7.5 0 1 0 -15 0zM224.99 -0.73 a7.5 7.5 0 1 0 15 0 a7.5 7.5 0 1 0 -15 0zM289.94 186.77 a7.5 7.5 0 1 0 15 0 a7.5 7.5 0 1 0 -15 0zM354.9 224.27 a7.5 7.5 0 1 0 15 0 a7.5 7.5 0 1 0 -15 0zM354.9 299.27 a7.5 7.5 0 1 0 15 0 a7.5 7.5 0 1 0 -15 0zM289.94 336.77 a7.5 7.5 0 1 0 15 0 a7.5 7.5 0 1 0 -15 0zM419.85 -38.23 a7.5 7.5 0 1 0 15 0 a7.5 7.5 0 1 0 -15 0zM484.81 -0.73 a7.5 7.5 0 1 0 15 0 a7.5 7.5 0 1 0 -15 0zM484.81 74.27 a7.5 7.5 0 1 0 15 0 a7.5 7.5 0 1 0 -15 0zM419.85 111.77 a7.5 7.5 0 1 0 15 0 a7.5 7.5 0 1 0 -15 0zM1069.39 186.77 a7.5 7.5 0 1 0 15 0 a7.5 7.5 0 1 0 -15 0zM1134.34 224.27 a7.5 7.5 0 1 0 15 0 a7.5 7.5 0 1 0 -15 0zM1134.34 299.27 a7.5 7.5 0 1 0 15 0 a7.5 7.5 0 1 0 -15 0zM1069.39 336.77 a7.5 7.5 0 1 0 15 0 a7.5 7.5 0 1 0 -15 0zM1004.44 299.27 a7.5 7.5 0 1 0 15 0 a7.5 7.5 0 1 0 -15 0zM1004.44 224.27 a7.5 7.5 0 1 0 15 0 a7.5 7.5 0 1 0 -15 0zM1199.3 336.77 a7.5 7.5 0 1 0 15 0 a7.5 7.5 0 1 0 -15 0zM1199.3 411.77 a7.5 7.5 0 1 0 15 0 a7.5 7.5 0 1 0 -15 0zM1134.34 449.27 a7.5 7.5 0 1 0 15 0 a7.5 7.5 0 1 0 -15 0zM1069.39 411.77 a7.5 7.5 0 1 0 15 0 a7.5 7.5 0 1 0 -15 0zM1199.3 -38.23 a7.5 7.5 0 1 0 15 0 a7.5 7.5 0 1 0 -15 0zM1264.25 -0.73 a7.5 7.5 0 1 0 15 0 a7.5 7.5 0 1 0 -15 0zM1264.25 74.27 a7.5 7.5 0 1 0 15 0 a7.5 7.5 0 1 0 -15 0zM1199.3 111.77 a7.5 7.5 0 1 0 15 0 a7.5 7.5 0 1 0 -15 0zM1134.34 74.27 a7.5 7.5 0 1 0 15 0 a7.5 7.5 0 1 0 -15 0zM1134.34 -0.73 a7.5 7.5 0 1 0 15 0 a7.5 7.5 0 1 0 -15 0zM1199.3 186.77 a7.5 7.5 0 1 0 15 0 a7.5 7.5 0 1 0 -15 0zM1264.25 224.27 a7.5 7.5 0 1 0 15 0 a7.5 7.5 0 1 0 -15 0zM1264.25 299.27 a7.5 7.5 0 1 0 15 0 a7.5 7.5 0 1 0 -15 0zM1329.2 336.77 a7.5 7.5 0 1 0 15 0 a7.5 7.5 0 1 0 -15 0zM1329.2 411.77 a7.5 7.5 0 1 0 15 0 a7.5 7.5 0 1 0 -15 0zM1264.25 449.27 a7.5 7.5 0 1 0 15 0 a7.5 7.5 0 1 0 -15 0zM1329.21 186.77 a7.5 7.5 0 1 0 15 0 a7.5 7.5 0 1 0 -15 0zM1394.16 224.27 a7.5 7.5 0 1 0 15 0 a7.5 7.5 0 1 0 -15 0zM1394.16 299.27 a7.5 7.5 0 1 0 15 0 a7.5 7.5 0 1 0 -15 0zM1329.21 336.77 a7.5 7.5 0 1 0 15 0 a7.5 7.5 0 1 0 -15 0zM1459.11 -38.23 a7.5 7.5 0 1 0 15 0 a7.5 7.5 0 1 0 -15 0zM1524.07 -0.73 a7.5 7.5 0 1 0 15 0 a7.5 7.5 0 1 0 -15 0zM1524.07 74.27 a7.5 7.5 0 1 0 15 0 a7.5 7.5 0 1 0 -15 0zM1459.11 111.77 a7.5 7.5 0 1 0 15 0 a7.5 7.5 0 1 0 -15 0zM1394.16 74.27 a7.5 7.5 0 1 0 15 0 a7.5 7.5 0 1 0 -15 0zM1394.16 -0.73 a7.5 7.5 0 1 0 15 0 a7.5 7.5 0 1 0 -15 0z" fill="rgba(0, 51, 0, 1)"></path><path d="M45.77 -36.83L89.07 -11.83L89.07 38.17L45.77 63.17L2.47 38.17L2.47 -11.83zM45.77 113.17L89.07 138.17L89.07 188.17L45.77 213.17L2.47 188.17L2.47 138.17zM218.98 -36.83L262.28 -11.83L262.28 38.17L218.98 63.17L175.68 38.17L175.68 -11.83zM218.98 413.17L262.28 438.17L262.28 488.17L218.98 513.17L175.68 488.17L175.68 438.17zM305.58 413.17L348.89 438.17L348.89 488.17L305.58 513.17L262.28 488.17L262.28 438.17zM435.49 338.17L478.8 363.17L478.8 413.17L435.49 438.17L392.19 413.17L392.19 363.17zM392.19 413.17L435.49 438.17L435.49 488.17L392.19 513.17L348.89 488.17L348.89 438.17zM478.8 113.17L522.1 138.17L522.1 188.17L478.8 213.17L435.49 188.17L435.49 138.17zM522.1 188.17L565.4 213.17L565.4 263.17L522.1 288.17L478.8 263.17L478.8 213.17zM695.31 338.17L738.61 363.17L738.61 413.17L695.31 438.17L652 413.17L652 363.17zM652 413.17L695.31 438.17L695.31 488.17L652 513.17L608.7 488.17L608.7 438.17zM868.52 188.17L911.82 213.17L911.82 263.17L868.52 288.17L825.22 263.17L825.22 213.17zM911.82 -36.83L955.12 -11.83L955.12 38.17L911.82 63.17L868.52 38.17L868.52 -11.83zM955.12 38.17L998.43 63.17L998.43 113.17L955.12 138.17L911.82 113.17L911.82 63.17zM955.12 188.17L998.43 213.17L998.43 263.17L955.12 288.17L911.82 263.17L911.82 213.17zM911.82 413.17L955.12 438.17L955.12 488.17L911.82 513.17L868.52 488.17L868.52 438.17zM1041.73 188.17L1085.03 213.17L1085.03 263.17L1041.73 288.17L998.43 263.17L998.43 213.17zM1041.73 488.17L1085.03 513.17L1085.03 563.17L1041.73 588.17L998.43 563.17L998.43 513.17zM1085.03 413.17L1128.33 438.17L1128.33 488.17L1085.03 513.17L1041.73 488.17L1041.73 438.17zM1171.63 -36.83L1214.94 -11.83L1214.94 38.17L1171.63 63.17L1128.33 38.17L1128.33 -11.83zM1214.94 188.17L1258.24 213.17L1258.24 263.17L1214.94 288.17L1171.63 263.17L1171.63 213.17zM1214.94 488.17L1258.24 513.17L1258.24 563.17L1214.94 588.17L1171.63 563.17L1171.63 513.17zM1301.54 338.17L1344.85 363.17L1344.85 413.17L1301.54 438.17L1258.24 413.17L1258.24 363.17zM1344.85 -36.83L1388.15 -11.83L1388.15 38.17L1344.85 63.17L1301.54 38.17L1301.54 -11.83zM1344.85 413.17L1388.15 438.17L1388.15 488.17L1344.85 513.17L1301.54 488.17L1301.54 438.17zM1431.45 -36.83L1474.75 -11.83L1474.75 38.17L1431.45 63.17L1388.15 38.17L1388.15 -11.83zM1474.75 488.17L1518.06 513.17L1518.06 563.17L1474.75 588.17L1431.45 563.17L1431.45 513.17z" stroke="rgba(67, 255, 161, 1)" stroke-width="2"></path></g><defs><mask id="SvgjsMask1003"><rect width="1440" height="560" fill="#ffffff"></rect></mask></defs></svg>