<svg xmlns="http://www.w3.org/2000/svg" version="1.1" xmlns:xlink="http://www.w3.org/1999/xlink" xmlns:svgjs="http://svgjs.dev/svgjs" width="1440" height="560" preserveAspectRatio="none" viewBox="0 0 1440 560"><g clip-path="url(&quot;#SvgjsClipPath1007&quot;)" fill="none"><rect width="1440" height="560" x="0" y="0" fill="rgba(0, 163, 0, 1)"></rect><circle r="93.335" cx="-20.52" cy="37.01" stroke="#43ffa1" stroke-opacity="1" stroke-width="2"></circle><circle r="93.335" cx="425.73" cy="292.45" stroke="#43ffa1" stroke-opacity="1" stroke-width="2"></circle><circle r="93.335" cx="739.79" cy="835.2" stroke="#43ffa1" stroke-opacity="1" stroke-width="2"></circle><circle r="186.61" cx="1275.32" cy="117" stroke="#43ffa1" stroke-opacity="1" stroke-width="2"></circle><circle r="90.595" cx="844.9" cy="250.1" stroke="#43ffa1" stroke-opacity="1" stroke-width="2"></circle><circle r="113.79" cx="20.21" cy="554.57" stroke="#43ffa1" stroke-opacity="1" stroke-width="2"></circle><circle r="119.155" cx="214.92" cy="546.23" stroke="#43ffa1" stroke-opacity="1" stroke-width="2"></circle><circle r="93.5" cx="608.86" cy="390.04" stroke="#43ffa1" stroke-opacity="1" stroke-width="2"></circle><circle r="172.25" cx="592.7" cy="547.36" stroke="#43ffa1" stroke-opacity="1" stroke-width="2"></circle><circle r="92.2" cx="1160.27" cy="388.47" stroke="#43ffa1" stroke-opacity="1" stroke-width="2"></circle><circle r="52.34" cx="671.06" cy="379.73" stroke="#43ffa1" stroke-opacity="1" stroke-width="2"></circle><circle r="54.615" cx="924.52" cy="55.46" stroke="#43ffa1" stroke-opacity="1" stroke-width="2"></circle><circle r="179.905" cx="1.13" cy="18.06" stroke="#43ffa1" stroke-opacity="1" stroke-width="2"></circle><circle r="157.605" cx="1278.37" cy="180.6" stroke="#43ffa1" stroke-opacity="1" stroke-width="2"></circle><circle r="64.285" cx="800.72" cy="219.79" stroke="#43ffa1" stroke-opacity="1" stroke-width="2"></circle><circle r="54.09" cx="437.12" cy="390.57" stroke="#43ffa1" stroke-opacity="1" stroke-width="2"></circle><circle r="99.25" cx="499.75" cy="358.9" stroke="#43ffa1" stroke-opacity="1" stroke-width="2"></circle><circle r="124.845" cx="637.01" cy="272.73" stroke="#43ffa1" stroke-opacity="1" stroke-width="2"></circle><circle r="180.785" cx="713.8" cy="375.82" stroke="#43ffa1" stroke-opacity="1" stroke-width="2"></circle><circle r="79.42" cx="966.97" cy="168.14" stroke="#43ffa1" stroke-opacity="1" stroke-width="2"></circle><circle r="170.56" cx="1249.5" cy="400.04" stroke="#43ffa1" stroke-opacity="1" stroke-width="2"></circle><circle r="159.465" cx="1439.65" cy="31.11" stroke="#43ffa1" stroke-opacity="1" stroke-width="2"></circle><circle r="110.255" cx="366.98" cy="410.97" stroke="#43ffa1" stroke-opacity="1" stroke-width="2"></circle><circle r="88.665" cx="521.43" cy="516.26" stroke="#43ffa1" stroke-opacity="1" stroke-width="2"></circle><circle r="158.065" cx="722.49" cy="510.28" stroke="#43ffa1" stroke-opacity="1" stroke-width="2"></circle><circle r="150.375" cx="226.59" cy="115.53" stroke="#43ffa1" stroke-opacity="1" stroke-width="2"></circle><circle r="102.75" cx="819.44" cy="113.62" stroke="#43ffa1" stroke-opacity="1" stroke-width="2"></circle><circle r="61.44" cx="355.48" cy="265.1" stroke="#43ffa1" stroke-opacity="1" stroke-width="2"></circle><circle r="119.04" cx="721.42" cy="315.42" stroke="#43ffa1" stroke-opacity="1" stroke-width="2"></circle><circle r="83.095" cx="455.86" cy="142.37" stroke="#43ffa1" stroke-opacity="1" stroke-width="2"></circle><circle r="88.195" cx="315.66" cy="125.28" stroke="#43ffa1" stroke-opacity="1" stroke-width="2"></circle><circle r="111.75" cx="1299" cy="181.47" stroke="#43ffa1" stroke-opacity="1" stroke-width="2"></circle><circle r="73.91" cx="901.61" cy="256.68" stroke="#43ffa1" stroke-opacity="1" stroke-width="2"></circle><circle r="67.78" cx="136" cy="294.74" stroke="#43ffa1" stroke-opacity="1" stroke-width="2"></circle><circle r="119.61" cx="1385.47" cy="224" stroke="#43ffa1" stroke-opacity="1" stroke-width="2"></circle><circle r="50.09" cx="826.72" cy="273.2" stroke="#43ffa1" stroke-opacity="1" stroke-width="2"></circle><circle r="183.205" cx="1145.33" cy="551.37" stroke="#43ffa1" stroke-opacity="1" stroke-width="2"></circle><circle r="162.585" cx="105.81" cy="196.94" stroke="#43ffa1" stroke-opacity="1" stroke-width="2"></circle><circle r="75.33" cx="975.12" cy="2.74" stroke="#43ffa1" stroke-opacity="1" stroke-width="2"></circle><circle r="108.175" cx="921.96" cy="48.71" stroke="#43ffa1" stroke-opacity="1" stroke-width="2"></circle></g><defs><clipPath id="SvgjsClipPath1007"><rect width="1440" height="560" x="0" y="0"></rect></clipPath></defs></svg>